<svg width="71" height="5" viewBox="0 0 71 5" fill="none" xmlns="http://www.w3.org/2000/svg">
<path d="M0.781672 2.92334C0.781672 4.02997 1.67877 4.92707 2.7854 4.92707C3.89203 4.92707 4.78913 4.02997 4.78913 2.92334C4.78913 1.81671 3.89203 0.919611 2.7854 0.919611C1.67877 0.919611 0.781672 1.81671 0.781672 2.92334ZM66.9047 2.92334C66.9047 4.02997 67.8018 4.92707 68.9084 4.92707C70.0151 4.92707 70.9122 4.02997 70.9122 2.92334C70.9122 1.81671 70.0151 0.919611 68.9084 0.919611C67.8018 0.919611 66.9047 1.81671 66.9047 2.92334ZM2.7854 3.29904H68.9084V2.54764H2.7854V3.29904Z" fill="#5D70CE"/>
</svg>
